<svg width="24" height="22" viewBox="0 0 24 22" fill="none" xmlns="http://www.w3.org/2000/svg">
<g clip-path="url(#clip0_76_446)">
<path d="M9 14C9.5 14.3 10.2 14.5 11 14.5C11.8 14.5 12.5 14.3 13 14" stroke="black" stroke-width="1.5" stroke-linecap="round" stroke-linejoin="round"/>
<path d="M14 10H14.01" stroke="black" stroke-width="1.5" stroke-linecap="round" stroke-linejoin="round"/>
<path d="M11 0.25C12.1309 0.250089 13.1663 0.56033 13.9385 1.11621C14.7144 1.67498 15.25 2.50868 15.25 3.5C15.25 5.1545 14.1572 6.74969 12.5 6.75C11.986 6.74992 11.4649 6.62268 11.0479 6.35742C10.626 6.08894 10.25 5.62908 10.25 5C10.25 4.58595 10.586 4.25026 11 4.25C11.414 4.25026 11.75 4.58595 11.75 5V4.99805C11.7505 4.99918 11.7519 5.0017 11.7539 5.00488C11.763 5.01881 11.7905 5.0517 11.8535 5.0918C11.9863 5.17615 12.2148 5.24992 12.5 5.25C13.0424 5.24964 13.75 4.645 13.75 3.5C13.75 3.09164 13.536 2.67513 13.0625 2.33398C12.5849 1.99011 11.8686 1.75009 11 1.75C9.10215 1.75429 7.26388 2.41351 5.79492 3.61523C4.32552 4.81747 3.31537 6.48944 2.93555 8.34961C2.88883 8.57847 2.73749 8.77307 2.52734 8.875C2.3161 8.97732 2.13739 9.13709 2.0127 9.33594C1.888 9.53489 1.82227 9.7652 1.82227 10C1.82227 10.2348 1.888 10.4651 2.0127 10.6641C2.13739 10.8629 2.3161 11.0227 2.52734 11.125C2.73508 11.2258 2.88512 11.4168 2.93359 11.6426C3.32934 13.4882 4.34646 15.1425 5.81445 16.3291C7.28229 17.5155 9.11267 18.163 11 18.1631C12.8875 18.163 14.7186 17.5156 16.1865 16.3291C17.6544 15.1425 18.6717 13.4881 19.0674 11.6426L19.0898 11.5596C19.1539 11.3704 19.2917 11.2131 19.4736 11.125C19.6848 11.0226 19.8637 10.8629 19.9883 10.6641C20.1129 10.4652 20.1787 10.2347 20.1787 10C20.1787 9.76529 20.1129 9.53485 19.9883 9.33594C19.8637 9.13711 19.6848 8.97736 19.4736 8.875C19.261 8.77201 19.1095 8.57471 19.0645 8.34277C18.8486 7.22958 18.4052 6.17261 17.7627 5.23828L18.3809 4.81348L18.998 4.3877C19.6914 5.39583 20.1856 6.52581 20.4609 7.71582C20.7804 7.93022 21.0529 8.21065 21.2588 8.53906C21.5331 8.97674 21.6787 9.48348 21.6787 10C21.6787 10.5165 21.5331 11.0233 21.2588 11.4609C21.0518 11.791 20.7767 12.0713 20.4551 12.2861C19.9411 14.3343 18.7768 16.1647 17.1299 17.4961C15.3951 18.8984 13.2307 19.663 11 19.6631C8.76945 19.663 6.60585 18.8982 4.87109 17.4961C3.22394 16.1647 2.05896 14.3345 1.54492 12.2861C1.22349 12.0714 0.949071 11.7908 0.742188 11.4609C0.467824 11.0232 0.321289 10.5166 0.321289 10C0.321289 9.48339 0.467824 8.97679 0.742188 8.53906C0.948395 8.21025 1.22095 7.92932 1.54102 7.71484C2.03861 5.65102 3.1968 3.80241 4.84473 2.4541C6.5814 1.0333 8.7552 0.254529 10.999 0.25H11ZM17.9551 4.19531C18.2962 3.96096 18.7633 4.04684 18.998 4.3877L17.7627 5.23828C17.5281 4.89713 17.6141 4.43013 17.9551 4.19531Z" fill="black"/>
<path d="M8 10H8.01" stroke="black" stroke-width="1.5" stroke-linecap="round" stroke-linejoin="round"/>
<path d="M18.4795 19.4819C18.3402 19.4819 18.2254 19.4378 18.1352 19.3494C18.0451 19.261 18 19.1526 18 19.0241C18 18.8956 18.0451 18.7912 18.1352 18.7108C18.2254 18.6225 18.3402 18.5783 18.4795 18.5783H23.5205C23.6598 18.5783 23.7746 18.6225 23.8648 18.7108C23.9549 18.7992 24 18.9076 24 19.0361C24 19.1647 23.9549 19.2731 23.8648 19.3614C23.7746 19.4418 23.6598 19.4819 23.5205 19.4819H18.4795ZM20.9877 22C20.8402 22 20.7131 21.9518 20.6066 21.8554C20.5082 21.759 20.459 21.6386 20.459 21.494V16.5181C20.459 16.3655 20.5082 16.241 20.6066 16.1446C20.7131 16.0482 20.8443 16 21 16C21.1557 16 21.2787 16.0482 21.3689 16.1446C21.4672 16.241 21.5164 16.3655 21.5164 16.5181V21.4819C21.5164 21.6345 21.4672 21.759 21.3689 21.8554C21.2705 21.9518 21.1434 22 20.9877 22Z" fill="black"/>
</g>
<defs>
<clipPath id="clip0_76_446">
<rect width="24" height="22" fill="white"/>
</clipPath>
</defs>
</svg>
