<svg width="96" height="96" viewBox="0 0 96 96" fill="none" xmlns="http://www.w3.org/2000/svg">
<path d="M28 65.2C36.8 65.2 44 57.88 44 49C44 44.36 41.72 39.96 37.16 36.24C32.6 32.52 29.16 27 28 21.2C26.84 27 23.44 32.56 18.84 36.24C14.24 39.92 12 44.4 12 49C12 57.88 19.2 65.2 28 65.2Z" stroke="black" stroke-width="4" stroke-linecap="round" stroke-linejoin="round"/>
<path d="M50.24 26.4C52.991 22.0045 54.9412 17.1562 56 12.08C58 22.08 64 31.68 72 38.08C80 44.48 84 52.08 84 60.08C84.0228 65.6092 82.4035 71.0206 79.3472 75.6283C76.2909 80.2361 71.9353 83.8326 66.8325 85.962C61.7298 88.0913 56.1097 88.6576 50.6847 87.5891C45.2597 86.5206 40.2741 83.8653 36.36 79.96" stroke="black" stroke-width="4" stroke-linecap="round" stroke-linejoin="round"/>
</svg>
