<svg width="96" height="96" viewBox="0 0 96 96" fill="none" xmlns="http://www.w3.org/2000/svg">
<path d="M56 8V32C55.9994 33.3419 56.3364 34.6625 56.98 35.84L79.02 76.16C79.6867 77.3784 80.0246 78.7494 80.0006 80.1381C79.9767 81.5268 79.5916 82.8853 78.8832 84.08C78.1749 85.2747 77.1677 86.2644 75.9608 86.9517C74.7539 87.639 73.3889 88.0003 72 88H24C22.6111 88.0003 21.246 87.639 20.0392 86.9517C18.8323 86.2644 17.8251 85.2747 17.1168 84.08C16.4084 82.8853 16.0233 81.5268 15.9993 80.1381C15.9754 78.7494 16.3133 77.3784 16.98 76.16L39.02 35.84C39.6636 34.6625 40.0006 33.3419 40 32V8" stroke="black" stroke-width="4" stroke-linecap="round" stroke-linejoin="round"/>
<path d="M25.812 60H70.188" stroke="black" stroke-width="4" stroke-linecap="round" stroke-linejoin="round"/>
<path d="M34 8H62" stroke="black" stroke-width="4" stroke-linecap="round" stroke-linejoin="round"/>
</svg>
