<svg width="96" height="96" viewBox="0 0 96 96" fill="none" xmlns="http://www.w3.org/2000/svg">
<path d="M76.8 56C81.32 59.344 84 63.496 84 68C84 79.044 67.88 88 48 88C28.12 88 12 79.044 12 68C12 63.496 14.68 59.344 19.2 56M51.036 32C44.892 28.464 39.716 27.144 35.588 27.188M35.588 27.188C28.036 27.272 24 31.932 24 36C24 42.628 34.376 48 47.172 48C59.968 48 67.484 41.928 70.344 36C76.136 24 66.484 10 45.24 8C49.748 13.46 54.124 24.94 35.588 27.188Z" stroke="white" stroke-width="4" stroke-linecap="round" stroke-linejoin="round"/>
<path d="M68.056 40C75.34 42.884 80 47.304 80 52.264C80 60.956 65.672 68 48 68C30.328 68 16 60.956 16 52.264C16 47.836 19.72 43.836 25.704 40.976" stroke="white" stroke-width="4" stroke-linecap="round" stroke-linejoin="round"/>
</svg>
