<svg width="96" height="96" viewBox="0 0 96 96" fill="none" xmlns="http://www.w3.org/2000/svg">
<path d="M80 44C84.4 38.4 85.2 30.8 82.8 24.4L86 21.2C87.4852 19.7148 88.3196 17.7004 88.3196 15.6C88.3196 13.4996 87.4852 11.4852 86 10C84.5148 8.51479 82.5004 7.6804 80.4 7.6804C78.2996 7.6804 76.2852 8.51479 74.8 10L71.6 13.2C68.3501 12.0468 64.869 11.6992 61.4553 12.1868C58.0415 12.6745 54.797 13.983 52 16" stroke="black" stroke-width="4" stroke-linecap="round" stroke-linejoin="round"/>
<path d="M45.2 14.8C45.9477 14.0671 46.953 13.6566 48 13.6566C49.047 13.6566 50.0523 14.0671 50.8 14.8L81.2 45.2C81.9329 45.9477 82.3434 46.953 82.3434 48C82.3434 49.047 81.9329 50.0523 81.2 50.8L74.8 57.2C74.0523 57.9329 73.047 58.3434 72 58.3434C70.953 58.3434 69.9477 57.9329 69.2 57.2L38.8 26.8C38.0671 26.0523 37.6566 25.047 37.6566 24C37.6566 22.953 38.0671 21.9477 38.8 21.2L45.2 14.8Z" stroke="black" stroke-width="4" stroke-linecap="round" stroke-linejoin="round"/>
<path d="M40 28L10.8 57.2C7.19998 60.8 7.19998 67.2 10.8 70.8L25.2 85.2C28.8 88.8 35.2 88.8 38.8 85.2L68 56M16 52L24 60M28 40L36 48" stroke="black" stroke-width="4" stroke-linecap="round" stroke-linejoin="round"/>
</svg>
